<?xml version="1.0" standalone="no"?><!DOCTYPE svg PUBLIC "-//W3C//DTD SVG 1.1//EN" "http://www.w3.org/Graphics/SVG/1.1/DTD/svg11.dtd"><svg t="1746864309300" class="icon" viewBox="0 0 1024 1024" version="1.1" xmlns="http://www.w3.org/2000/svg" p-id="2632" xmlns:xlink="http://www.w3.org/1999/xlink" width="200" height="200"><path d="M557.994667 474.666667l98.986666-126.421334c6.016-8.448 8.917333-12.8 6.016-20.010666a20.906667 20.906667 0 0 0-18.176-13.354667 15.957333 15.957333 0 0 0-12.245333 4.693333l-106.154667 119.509334 31.573334 35.584zM693.248 710.826667l-131.456-161.92-3.968 4.394666-31.616-38.997333-31.445333-39.594667-19.072 21.504a20.778667 20.778667 0 0 0 0.042666 27.605334l194.133334 216.021333a15.573333 15.573333 0 0 0 12.714666 5.077333 17.92 17.92 0 0 0 16.384-11.946666c2.944-7.296-0.341333-14.506667-5.717333-22.144z" p-id="2633"></path><path d="M502.058667 553.301333l24.618666 27.392L418.816 699.733333a11.946667 11.946667 0 0 1-9.258667 5.034667 13.994667 13.994667 0 0 1-13.141333-9.045333c-2.133333-5.205333 0.64-13.354667 4.522667-17.621334l0.128-0.128 0.085333-0.085333 100.906667-124.586667z m-0.170667-7.978666l-104.618667 129.109333c-5.248 5.802667-8.490667 15.957333-5.546666 23.253333 2.986667 7.509333 10.026667 12.373333 17.834666 12.330667a16.810667 16.810667 0 0 0 12.842667-6.613333l111.232-122.709334-31.744-35.413333zM292.309333 413.952c7.552 0 12.586667 5.248 16.213334 14.634667 4.266667-9.386667 10.410667-14.634667 19.072-14.634667h60.416c9.130667 0 16.554667 7.68 16.554666 17.237333v33.109334c0 11.264-5.418667 17.237333-16.554666 17.237333-10.794667 0-16.554667-5.973333-16.554667-17.237333v-15.872H328.661333c-6.4-0.768-11.733333 4.992-10.794666 11.605333v114.986667h40.661333c10.794667 0 16.512 5.632 16.512 17.237333s-5.717333 17.237333-16.512 17.237333H251.306667c-10.794667 0-16.213333-5.632-16.213334-17.237333s5.418667-17.237333 16.213334-17.237333h33.450666V448.426667h-29.482666c-10.794667 0-16.213333-5.632-16.213334-17.237334 0-11.221333 5.418667-17.237333 16.213334-17.237333h37.034666zM745.898667 413.994667c10.794667 0 16.554667 5.973333 16.554666 17.237333v143.786667h41.045334c11.136 0 16.512 5.674667 16.512 17.28s-5.376 17.237333-16.512 17.237333h-116.224c-10.794667 0-16.554667-5.632-16.554667-17.237333s5.76-17.237333 16.554667-17.237334h42.112V448.426667h-34.688c-11.136 0-16.554667-5.632-16.554667-17.237334 0-11.221333 5.418667-17.237333 16.554667-17.237333h51.2z m17.152-74.538667a24.32 24.32 0 0 1-23.765334 24.96 24.32 24.32 0 0 1-23.850666-24.832 24.32 24.32 0 0 1 23.978666-24.746667c12.970667 0.213333 23.466667 11.093333 23.637334 24.618667zM1013.632 431.189333a20.138667 20.138667 0 0 1-1.109333 6.741334l-60.416 161.066666a15.146667 15.146667 0 0 1-15.104 10.496h-24.106667a14.976 14.976 0 0 1-15.445333-10.496L836.266667 437.930667a14.122667 14.122667 0 0 1-1.408-6.741334c0-9.642667 7.637333-17.408 16.896-17.237333a15.488 15.488 0 0 1 15.104 11.264l58.282666 152.832 56.448-152.832a15.488 15.488 0 0 1 15.104-11.264 16.938667 16.938667 0 0 1 16.938667 17.237333zM142.165333 413.952c20.352 0 33.28 13.994667 33.28 35.541333v160H31.274667a19.925333 19.925333 0 0 1-20.906667-20.821333v-55.125333c0.042667-17.237333 12.117333-31.829333 28.458667-34.474667l103.637333-15.104v-35.541333h-115.2a16.64 16.64 0 0 1-16.853333-17.194667c0-12.16 8.704-17.237333 17.664-17.237333h114.133333z m0.213334 161.066667V518.826667l-98.901334 14.421333v41.856h98.901334zM377.472 284.416h0.298667c4.053333 0.085333 9.088 5.248 10.496 7.04l0.128 0.128 0.085333 0.128 189.568 213.333333a13.824 13.824 0 0 1-0.170667 18.346667l-19.882666 21.973333-27.904-34.432L369.792 309.333333c-6.144-9.173333-6.570667-12.032-4.821333-16.341333a13.653333 13.653333 0 0 1 12.501333-8.533333z m0-5.290667a18.688 18.688 0 0 0-17.194667 11.776c-2.858667 7.168-0.853333 12.202667 5.461334 21.589334l160.426666 201.856 31.658667 38.997333 23.765333-26.325333a19.242667 19.242667 0 0 0 0.170667-25.6L392.192 288.170667q-6.954667-8.789333-14.293333-8.96l-0.426667-0.042667z" p-id="2634"></path></svg>