<?xml version="1.0" standalone="no"?><!DOCTYPE svg PUBLIC "-//W3C//DTD SVG 1.1//EN" "http://www.w3.org/Graphics/SVG/1.1/DTD/svg11.dtd"><svg t="1746890081647" class="icon" viewBox="0 0 3475 1024" version="1.1" xmlns="http://www.w3.org/2000/svg" p-id="2632" xmlns:xlink="http://www.w3.org/1999/xlink" width="678.7109375" height="200"><path d="M3003.161871 1007.200262l-275.474969-722.558406h205.214733l202.160235 521.04301 200.632987-521.046404H3475.339705l-279.293091 722.558407zM2362.861088 162.882788V0h194.958408v162.882788z m0 844.860496V284.638462h194.958408v722.558407z m-1013.200654-0.437811l312.132335-480.034681L1363.734881 32.947849h236.635333l198.450717 327.849423 215.141851-327.849423h162.882788l-297.620077 459.087614 309.295046 514.513173h-235.980313L1741.650915 657.429728l-226.487612 349.115514z m-486.683305 0V284.638462h194.632596v136.264537c50.076793-101.78944 127.318253-152.847066 230.526337-152.847066a200.53117 200.53117 0 0 1 37.420991 4.035331l-1.31004-0.217209v173.685529a226.847365 226.847365 0 0 0-76.807042-14.838072h-0.217209c-78.113689 0-140.846284 38.839636-189.504433 116.410303v460.285656z m-440.52645-78.005084q-96.552673 94.587613-209.032855 94.587613c-2.290873 0.108604-4.910954 0.108604-7.52764 0.108604a213.241274 213.241274 0 0 1-146.744858-58.144061l0.108604 0.108604A199.716637 199.716637 0 0 1 0.000068 823.804825c0-2.715109 0.108604-5.453975 0.108604-8.074056v0.437812C0.000068 813.769103 0.000068 810.931814 0.000068 808.203129a210.814645 210.814645 0 0 1 95.242633-176.414213l0.763624-0.546416q95.57184-65.023469 274.056324-65.132073h51.587073v-65.892304q0-112.262973-127.973273-112.262973a478.992758 478.992758 0 0 0-233.159993 65.678489l2.290873-1.201436V318.349935a716.659832 716.659832 0 0 1 262.853105-50.185398h0.108604q284.092046 0 283.766233 225.50678v320.858017c0 56.732204 17.892569 84.334682 54.641571 84.334682a114.445242 114.445242 0 0 0 26.075229-3.054498l-0.763625 0.108604 4.690351 109.208476a389.373795 389.373795 0 0 1-108.553455 18.873402h-0.65502c-80.295957 0-131.24498-31.4206-154.157107-94.587613z m0-104.735333v-146.95528h-46.604847c-126.008213 0-188.632204 39.820469-188.632204 118.589177v1.201436a93.07394 93.07394 0 0 0 93.060364 93.060364c47.894524 0.54981 94.163377-21.815902 142.156324-65.892304z" fill="#B31B1B" p-id="2633"></path></svg>