<?xml version="1.0" standalone="no"?><!DOCTYPE svg PUBLIC "-//W3C//DTD SVG 1.1//EN" "http://www.w3.org/Graphics/SVG/1.1/DTD/svg11.dtd"><svg t="1746846458307" class="icon" viewBox="0 0 1024 1024" version="1.1" xmlns="http://www.w3.org/2000/svg" p-id="23437" xmlns:xlink="http://www.w3.org/1999/xlink" width="200" height="200"><path d="M272 236.8A384.96 384.96 0 0 1 543.872 128c6.144 0 12.16 2.432 16.448 6.72a22.656 22.656 0 0 1 6.848 16.192v781.44A28.032 28.032 0 0 1 538.88 960h-134.4a32 32 0 0 1-32-32v-76.48H226.368a32 32 0 0 1-32-32v-140.8c0-1.28 0-2.56 0.192-3.84l0.128-11.52-52.672-37.248a32.64 32.64 0 0 1-9.472-43.456l63.36-104.32Q176.64 330.304 272 236.8z" fill="#C5D2FD" p-id="23438"></path><path d="M372.416 928v-76.416H226.368a32 32 0 0 1-32-32v-140.8c0-1.28 0-2.56 0.192-3.84l0.128-11.52-52.672-37.248a32.64 32.64 0 0 1-9.472-43.456l63.36-104.32Q176.64 330.304 272 236.8A384.96 384.96 0 0 1 543.808 128c6.144 0 12.16 2.432 16.448 6.72a22.656 22.656 0 0 1 6.848 16.192v781.44A28.032 28.032 0 0 1 538.88 960h-134.4a32 32 0 0 1-32-32zM285.504 250.496v0.064H285.44Q196.992 337.472 214.912 476.032l0.896 6.656-66.752 109.888q-6.336 10.752 4.032 17.92l60.928 43.072-0.256 22.976-0.192 1.28v141.824q0 5.312 3.712 9.024 3.84 3.776 9.088 3.776h165.248V928q0 12.8 12.8 12.8h134.4q9.088 0 9.088-8.512V150.912q0-1.408-1.088-2.496-1.28-1.216-3.2-1.216-150.272-1.408-258.112 103.232z" fill="#E8EDFE" p-id="23439"></path><path d="M648.832 193.024a64.512 64.512 0 0 0 24.192 88.96 66.944 66.944 0 0 0 90.496-23.808 64.448 64.448 0 0 0-24.128-88.832 67.008 67.008 0 0 0-90.56 23.68z m-45.632 266.24h95.488a22.4 22.4 0 0 0 10.368-2.56l89.92-48.576c24.064 21.504 59.968 22.784 85.504 3.072 25.344-19.648 32.64-54.528 17.024-82.304a66.624 66.624 0 0 0-80-29.888 64.768 64.768 0 0 0-43.008 72.64l-84.736 46.08H603.2v41.6z m0 99.584a6.4 6.4 0 0 0 6.4 6.4h17.152c0.704 0.128 1.472 0.128 2.176 0.128h202.368c11.328 31.552 44.352 49.728 76.992 42.432 32.896-7.232 55.04-37.632 51.264-70.592a65.536 65.536 0 0 0-65.792-57.6c-28.352 0-53.504 17.728-62.464 44.16H609.6a6.4 6.4 0 0 0-6.4 6.4v28.672z m0 106.24a6.4 6.4 0 0 0 6.4 6.4h83.2l84.736 45.888c-5.632 32.32 14.208 63.68 46.208 73.088a66.56 66.56 0 0 0 79.488-36.096c13.44-30.08 1.92-65.28-26.88-81.92a66.88 66.88 0 0 0-77.44 8.512l-90.048-48.512a21.376 21.376 0 0 0-10.24-2.56H625.088a21.76 21.76 0 0 0-2.688 0.192h-12.8a6.4 6.4 0 0 0-6.4 6.4v28.672z m69.824 142.464c-31.36 17.6-42.176 57.6-23.872 88.704 18.752 31.04 58.88 41.472 90.368 23.424 31.552-18.048 42.24-57.728 23.872-88.704a65.664 65.664 0 0 0-40.256-30.08 67.2 67.2 0 0 0-50.112 6.656z" fill="#197CFD" p-id="23440"></path></svg>