<?xml version="1.0" standalone="no"?><!DOCTYPE svg PUBLIC "-//W3C//DTD SVG 1.1//EN" "http://www.w3.org/Graphics/SVG/1.1/DTD/svg11.dtd"><svg t="1746846381174" class="icon" viewBox="0 0 1024 1024" version="1.1" xmlns="http://www.w3.org/2000/svg" p-id="14600" xmlns:xlink="http://www.w3.org/1999/xlink" width="200" height="200"><path d="M754.4 466.1H589.9v-230c0-14.4-11.6-26-26-26H240.1c-14.4 0-26 11.6-26 26v268c0 14.4 11.6 26 26 26h10.6v21.4l21.4-21.4h66.1v-38c0-14.4 11.6-26 26-26h42.6c-6.3 0-12.1 2.3-16.6 6h42.6c-14.4 0-26 11.6-26 26v268c0 8 3.7 15.2 9.4 20h282.5l18.2 18.2v-18.2h37.5c14.4 0 26-11.6 26-26v-268c0-14.3-11.7-26-26-26z m-429-65.8c-0.2 0.1-0.3 0.1-0.5 0.2s-0.5 0.2-0.7 0.2c-0.5 0.1-1 0.3-1.4 0.4-0.2 0.1-0.4 0.1-0.7 0.2-0.3 0.1-0.7 0.2-1.1 0.2-0.2 0-0.4 0.1-0.6 0.1-0.5 0.1-1.1 0.2-1.6 0.3h-0.4c-0.5 0.1-0.9 0.1-1.4 0.1h-0.5c-0.6 0-1.2 0.1-1.8 0.1h-2.1c-0.3 0-0.7 0-1-0.1-0.2 0-0.4-0.1-0.6-0.1-0.3 0-0.6-0.1-0.9-0.1-0.2 0-0.5-0.1-0.7-0.1-0.3 0-0.5-0.1-0.8-0.1-0.2 0-0.5-0.1-0.7-0.2-0.3-0.1-0.5-0.1-0.8-0.2-0.3-0.1-0.5-0.1-0.8-0.2-0.2-0.1-0.5-0.1-0.7-0.2-0.3-0.1-0.5-0.2-0.8-0.2-0.2-0.1-0.4-0.1-0.6-0.2-0.3-0.1-0.5-0.2-0.8-0.3-0.2-0.1-0.4-0.2-0.6-0.2-0.3-0.1-0.6-0.2-0.8-0.3-0.2-0.1-0.3-0.2-0.5-0.2-0.3-0.1-0.6-0.3-0.9-0.4-0.1-0.1-0.3-0.1-0.4-0.2-0.3-0.2-0.6-0.3-0.9-0.5-0.1 0-0.2-0.1-0.3-0.1-4.4-2.5-8.2-6-10.9-10.2 0-0.1-0.1-0.1-0.1-0.2-0.3-0.4-0.5-0.8-0.7-1.2-0.1-0.1-0.1-0.2-0.2-0.3-0.2-0.4-0.4-0.7-0.6-1.1-0.1-0.1-0.1-0.3-0.2-0.4-0.2-0.3-0.3-0.7-0.5-1-0.1-0.2-0.1-0.3-0.2-0.5-0.1-0.3-0.3-0.7-0.4-1-0.1-0.2-0.1-0.4-0.2-0.5-0.1-0.3-0.2-0.6-0.4-1-0.1-0.2-0.1-0.4-0.2-0.6-0.1-0.3-0.2-0.6-0.3-1-0.1-0.2-0.1-0.4-0.2-0.6-0.1-0.3-0.2-0.6-0.2-1-0.1-0.2-0.1-0.4-0.1-0.6-0.1-0.3-0.1-0.7-0.2-1 0-0.2-0.1-0.4-0.1-0.7-0.1-0.3-0.1-0.7-0.1-1 0-0.2-0.1-0.4-0.1-0.6 0-0.4-0.1-0.8-0.1-1.1v-0.5-1.7-1.7-0.5c0-0.4 0.1-0.8 0.1-1.1 0-0.2 0.1-0.4 0.1-0.6 0-0.3 0.1-0.7 0.1-1 0-0.2 0.1-0.4 0.1-0.6 0.1-0.3 0.1-0.7 0.2-1 0-0.2 0.1-0.4 0.1-0.6 0.1-0.3 0.2-0.7 0.2-1 0.1-0.2 0.1-0.4 0.2-0.6 0.1-0.3 0.2-0.6 0.3-1 0.1-0.2 0.1-0.4 0.2-0.6 0.1-0.3 0.2-0.7 0.4-1 0.1-0.2 0.1-0.4 0.2-0.5 0.1-0.3 0.3-0.7 0.4-1 0.1-0.2 0.1-0.3 0.2-0.5 0.2-0.3 0.3-0.7 0.5-1 0.1-0.1 0.1-0.3 0.2-0.4 0.2-0.4 0.4-0.7 0.6-1.1 0.1-0.1 0.1-0.2 0.2-0.3 0.2-0.4 0.5-0.8 0.7-1.2 0-0.1 0.1-0.1 0.1-0.2 2.8-4.2 6.5-7.7 10.9-10.2 0.1 0 0.2-0.1 0.3-0.1 0.3-0.2 0.6-0.3 0.9-0.5 0.1-0.1 0.3-0.1 0.4-0.2 0.3-0.1 0.6-0.3 0.9-0.4 0.2-0.1 0.3-0.2 0.5-0.2 0.3-0.1 0.5-0.2 0.8-0.3 0.2-0.1 0.4-0.2 0.6-0.2 0.3-0.1 0.5-0.2 0.8-0.3 0.2-0.1 0.4-0.1 0.6-0.2 0.3-0.1 0.5-0.2 0.8-0.2 0.2-0.1 0.5-0.1 0.7-0.2 0.3-0.1 0.5-0.1 0.8-0.2 0.2-0.1 0.5-0.1 0.8-0.2 0.2-0.1 0.5-0.1 0.7-0.2 0.3-0.1 0.5-0.1 0.8-0.1 0.2 0 0.5-0.1 0.7-0.1 0.3 0 0.6-0.1 0.9-0.1 0.2 0 0.4-0.1 0.6-0.1 0.3 0 0.7-0.1 1-0.1h2.1c0.6 0 1.2 0 1.8 0.1h0.5c0.5 0 1 0.1 1.4 0.1h0.4c0.5 0.1 1.1 0.2 1.6 0.3 0.2 0 0.4 0.1 0.6 0.1 0.4 0.1 0.7 0.1 1.1 0.2 0.2 0.1 0.4 0.1 0.7 0.2 0.5 0.1 1 0.3 1.4 0.4 0.2 0.1 0.5 0.2 0.7 0.2 0.2 0.1 0.3 0.1 0.5 0.2-12.4 4.4-21.3 16.2-21.3 30.2s8.9 25.1 21.3 29.5z m15.6-11.9l-0.1 0.1c0.2-0.2 0.3-0.5 0.5-0.7-0.2 0.2-0.3 0.4-0.4 0.6z m-0.1-36.7l0.1 0.1c0.1 0.2 0.2 0.4 0.4 0.6-0.2-0.2-0.4-0.4-0.5-0.7z m133.8 16.7v-0.5c0-0.4 0.1-0.8 0.1-1.1 0-0.2 0.1-0.4 0.1-0.6 0-0.3 0.1-0.7 0.1-1 0-0.2 0.1-0.4 0.1-0.6 0.1-0.3 0.1-0.7 0.2-1 0-0.2 0.1-0.4 0.1-0.6 0.1-0.3 0.2-0.7 0.2-1 0.1-0.2 0.1-0.4 0.2-0.6 0.1-0.3 0.2-0.6 0.3-1 0.1-0.2 0.1-0.4 0.2-0.6 0.1-0.3 0.2-0.7 0.4-1 0.1-0.2 0.1-0.4 0.2-0.5 0.1-0.3 0.3-0.7 0.4-1 0.1-0.2 0.1-0.3 0.2-0.5 0.2-0.3 0.3-0.7 0.5-1 0.1-0.1 0.1-0.3 0.2-0.4 0.2-0.4 0.4-0.7 0.6-1.1 0.1-0.1 0.1-0.2 0.2-0.3 0.2-0.4 0.5-0.8 0.7-1.2 0-0.1 0.1-0.1 0.1-0.2 2.8-4.2 6.5-7.7 10.9-10.2 0.1 0 0.2-0.1 0.3-0.1 0.3-0.2 0.6-0.3 0.9-0.5 0.1-0.1 0.3-0.1 0.4-0.2 0.3-0.1 0.6-0.3 0.9-0.4 0.2-0.1 0.3-0.2 0.5-0.2 0.3-0.1 0.5-0.2 0.8-0.3 0.2-0.1 0.4-0.2 0.6-0.2 0.3-0.1 0.5-0.2 0.8-0.3 0.2-0.1 0.4-0.1 0.6-0.2 0.3-0.1 0.5-0.2 0.8-0.2 0.2-0.1 0.5-0.1 0.7-0.2 0.3-0.1 0.5-0.1 0.8-0.2 0.2-0.1 0.5-0.1 0.8-0.2 0.2-0.1 0.5-0.1 0.7-0.2 0.3-0.1 0.5-0.1 0.8-0.1 0.2 0 0.5-0.1 0.7-0.1 0.3 0 0.6-0.1 0.9-0.1 0.2 0 0.4-0.1 0.6-0.1 0.3 0 0.7-0.1 1-0.1h4.2c0.3 0 0.6 0 0.9 0.1 0.2 0 0.5 0 0.7 0.1 0.3 0 0.5 0.1 0.8 0.1 0.3 0 0.5 0.1 0.8 0.1 0.2 0 0.4 0.1 0.6 0.1 0.3 0.1 0.6 0.1 0.9 0.2 0.1 0 0.3 0.1 0.4 0.1 1.2 0.3 2.4 0.6 3.5 1-12.4 4.4-21.3 16.2-21.3 30.2s8.9 25.8 21.3 30.2c-1.2 0.4-2.3 0.8-3.5 1-0.1 0-0.3 0.1-0.4 0.1-0.3 0.1-0.6 0.1-0.9 0.2-0.2 0-0.4 0.1-0.6 0.1-0.3 0-0.5 0.1-0.8 0.1-0.3 0-0.5 0.1-0.8 0.1-0.2 0-0.5 0.1-0.7 0.1-0.3 0-0.6 0.1-0.9 0.1h-4.2c-0.3 0-0.7 0-1-0.1-0.2 0-0.4-0.1-0.6-0.1-0.3 0-0.6-0.1-0.9-0.1-0.2 0-0.5-0.1-0.7-0.1-0.3 0-0.5-0.1-0.8-0.1-0.2 0-0.5-0.1-0.7-0.2-0.3-0.1-0.5-0.1-0.8-0.2-0.3-0.1-0.5-0.1-0.8-0.2-0.2-0.1-0.5-0.1-0.7-0.2-0.3-0.1-0.5-0.2-0.8-0.2-0.2-0.1-0.4-0.1-0.6-0.2-0.3-0.1-0.5-0.2-0.8-0.3-0.2-0.1-0.4-0.2-0.6-0.2-0.3-0.1-0.6-0.2-0.8-0.3-0.2-0.1-0.3-0.2-0.5-0.2-0.3-0.1-0.6-0.3-0.9-0.4-0.1-0.1-0.3-0.1-0.4-0.2-0.3-0.2-0.6-0.3-0.9-0.5-0.1 0-0.2-0.1-0.3-0.1-4.4-2.5-8.2-6-10.9-10.2 0-0.1-0.1-0.1-0.1-0.2-0.3-0.4-0.5-0.8-0.7-1.2-0.1-0.1-0.1-0.2-0.2-0.3-0.2-0.4-0.4-0.7-0.6-1.1-0.1-0.1-0.1-0.3-0.2-0.4-0.2-0.3-0.3-0.7-0.5-1-0.1-0.2-0.1-0.3-0.2-0.5-0.1-0.3-0.3-0.7-0.4-1-0.1-0.2-0.1-0.4-0.2-0.5-0.1-0.3-0.2-0.6-0.4-1-0.1-0.2-0.1-0.4-0.2-0.6-0.1-0.3-0.2-0.6-0.3-1-0.1-0.2-0.1-0.4-0.2-0.6-0.1-0.3-0.2-0.6-0.2-1-0.1-0.2-0.1-0.4-0.1-0.6-0.1-0.3-0.1-0.7-0.2-1 0-0.2-0.1-0.4-0.1-0.7-0.1-0.3-0.1-0.7-0.1-1 0-0.2-0.1-0.4-0.1-0.6 0-0.4-0.1-0.8-0.1-1.1v-0.5-1.7-2.4zM437 353.1s0 0.1 0.1 0.1c-0.1-0.2-0.2-0.3-0.3-0.5 0 0.2 0.1 0.3 0.2 0.4z m0 33.9s0 0.1-0.1 0.1c-0.1 0.1-0.2 0.2-0.3 0.4 0.2-0.2 0.3-0.3 0.4-0.5z m-30.3 15c-0.2 0-0.4-0.1-0.6-0.1-0.3 0-0.6-0.1-0.9-0.1-0.2 0-0.5-0.1-0.7-0.1-0.3 0-0.5-0.1-0.8-0.1-0.2 0-0.5-0.1-0.7-0.2-0.3-0.1-0.5-0.1-0.8-0.2-0.3-0.1-0.5-0.1-0.8-0.2-0.2-0.1-0.5-0.1-0.7-0.2-0.3-0.1-0.5-0.2-0.8-0.2-0.2-0.1-0.4-0.1-0.6-0.2-0.3-0.1-0.5-0.2-0.8-0.3-0.2-0.1-0.4-0.2-0.6-0.2-0.3-0.1-0.6-0.2-0.8-0.3-0.2-0.1-0.3-0.2-0.5-0.2-0.3-0.1-0.6-0.3-0.9-0.4-0.1-0.1-0.3-0.1-0.4-0.2-0.3-0.2-0.6-0.3-0.9-0.5-0.1 0-0.2-0.1-0.3-0.1-4.4-2.5-8.2-6-11-10.2 0-0.1-0.1-0.1-0.1-0.2-0.3-0.4-0.5-0.8-0.7-1.2-0.1-0.1-0.1-0.2-0.2-0.3-0.2-0.4-0.4-0.7-0.6-1.1-0.1-0.1-0.1-0.3-0.2-0.4-0.2-0.3-0.3-0.7-0.5-1-0.1-0.2-0.1-0.3-0.2-0.5-0.1-0.3-0.3-0.7-0.4-1-0.1-0.2-0.1-0.4-0.2-0.5-0.1-0.3-0.2-0.6-0.4-1-0.1-0.2-0.1-0.4-0.2-0.6-0.1-0.3-0.2-0.6-0.3-1-0.1-0.2-0.1-0.4-0.2-0.6-0.1-0.3-0.2-0.6-0.2-1 0-0.2-0.1-0.4-0.1-0.6-0.1-0.3-0.1-0.7-0.2-1 0-0.2-0.1-0.4-0.1-0.7-0.1-0.3-0.1-0.7-0.1-1 0-0.2-0.1-0.4-0.1-0.6 0-0.4-0.1-0.8-0.1-1.1v-0.5-1.7-1.7-0.5c0-0.4 0.1-0.8 0.1-1.1 0-0.2 0.1-0.4 0.1-0.6 0-0.3 0.1-0.7 0.1-1 0-0.2 0.1-0.4 0.1-0.6 0.1-0.3 0.1-0.7 0.2-1 0-0.2 0.1-0.4 0.1-0.6 0.1-0.3 0.2-0.7 0.2-1 0.1-0.2 0.1-0.4 0.2-0.6 0.1-0.3 0.2-0.6 0.3-1 0.1-0.2 0.1-0.4 0.2-0.6 0.1-0.3 0.2-0.7 0.4-1 0.1-0.2 0.1-0.4 0.2-0.5 0.1-0.3 0.3-0.7 0.4-1 0.1-0.2 0.1-0.3 0.2-0.5 0.2-0.3 0.3-0.7 0.5-1 0.1-0.1 0.1-0.3 0.2-0.4 0.2-0.4 0.4-0.7 0.6-1.1 0.1-0.1 0.1-0.2 0.2-0.3 0.2-0.4 0.5-0.8 0.7-1.2 0-0.1 0.1-0.1 0.1-0.2 2.8-4.2 6.5-7.7 10.9-10.2 0.1 0 0.2-0.1 0.3-0.1 0.3-0.2 0.6-0.3 0.9-0.5 0.1-0.1 0.3-0.1 0.4-0.2 0.3-0.1 0.6-0.3 0.9-0.4 0.2-0.1 0.3-0.2 0.5-0.2 0.3-0.1 0.6-0.2 0.8-0.3 0.2-0.1 0.4-0.2 0.6-0.2 0.3-0.1 0.5-0.2 0.8-0.3 0.2-0.1 0.4-0.1 0.6-0.2 0.3-0.1 0.5-0.2 0.8-0.2 0.2-0.1 0.5-0.1 0.7-0.2 0.3-0.1 0.5-0.1 0.8-0.2 0.2-0.1 0.5-0.1 0.8-0.2 0.2-0.1 0.5-0.1 0.7-0.2 0.3-0.1 0.5-0.1 0.8-0.1 0.2 0 0.5-0.1 0.7-0.1 0.3 0 0.6-0.1 0.9-0.1 0.2 0 0.4-0.1 0.6-0.1 0.3 0 0.7-0.1 1-0.1h2.1c0.6 0 1.3 0 1.9 0.1h0.5c0.6 0 1.2 0.1 1.8 0.2h0.3c0.5 0.1 1 0.1 1.5 0.2 0.2 0 0.4 0.1 0.6 0.1l1.5 0.3c0.2 0.1 0.4 0.1 0.7 0.2 0.4 0.1 0.7 0.2 1.1 0.3 0.2 0.1 0.5 0.2 0.7 0.2 0.1 0 0.1 0 0.2 0.1-12.4 4.4-21.3 16.2-21.3 30.2s8.9 25.8 21.3 30.2c-0.1 0-0.1 0-0.2 0.1-0.2 0.1-0.5 0.2-0.7 0.2-0.4 0.1-0.7 0.2-1.1 0.3-0.2 0.1-0.4 0.1-0.7 0.2l-1.5 0.3c-0.2 0-0.4 0.1-0.6 0.1-0.5 0.1-1 0.2-1.5 0.2h-0.3c-0.6 0.1-1.2 0.1-1.8 0.2h-0.5c-0.6 0-1.2 0.1-1.9 0.1h-2.1c-0.2-0.6-0.6-0.6-0.9-0.6z" fill="#F7F8F8" p-id="14601"></path><path d="M800.2 466.1h-45.8c14.4 0 26 11.6 26 26v268c0 14.4-11.6 26-26 26h-37.5v18.2l45.8 45.8v-64h37.5c14.4 0 26-11.6 26-26v-268c0-14.3-11.7-26-26-26zM338.2 492.1v38h42.6v-38c0-14.4 11.6-26 26-26h-42.6c-14.3 0-26 11.7-26 26zM250.7 551.5v42.6l64-64h-42.6zM606.5 210.1h-42.6c14.4 0 26 11.6 26 26v230h42.6v-230c0-14.3-11.6-26-26-26zM528.1 338.1c-3.7 0-7.3 0.7-10.7 1.8 12.4 4.4 21.3 16.2 21.3 30.2 0 13.9-8.9 25.8-21.3 30.2 3.3 1.2 6.9 1.8 10.7 1.8 17.7 0 32-14.3 32-32 0-17.6-14.4-32-32-32zM431.2 338.1c-3.7 0-7.3 0.7-10.7 1.8 12.4 4.4 21.3 16.2 21.3 30.2 0 13.9-8.9 25.8-21.3 30.2 3.3 1.2 6.9 1.8 10.7 1.8 17.7 0 32-14.3 32-32 0-17.6-14.3-32-32-32zM368.1 370.1c0-17.7-14.3-32-32-32-3.7 0-7.3 0.7-10.7 1.8 12.4 4.4 21.3 16.2 21.3 30.2 0 13.9-8.9 25.8-21.3 30.2 3.3 1.2 6.9 1.8 10.7 1.8 17.6 0 32-14.3 32-32z" fill="#2EA7E0" p-id="14602"></path><path d="M549.7 634.1m-16 0a16 16 0 1 0 32 0 16 16 0 1 0-32 0Z" fill="#3E3A39" p-id="14603"></path><path d="M517.7 660.8m-16 0a16 16 0 1 0 32 0 16 16 0 1 0-32 0Z" fill="#EF6676" p-id="14604"></path><path d="M689.4 660.8m-16 0a16 16 0 1 0 32 0 16 16 0 1 0-32 0Z" fill="#EF6676" p-id="14605"></path><path d="M657.4 634.1m-16 0a16 16 0 1 0 32 0 16 16 0 1 0-32 0Z" fill="#3E3A39" p-id="14606"></path><path d="M628.8 644.8h-50.6c-3.9 0-6.7 3.7-5.8 7.5 1.8 7.5 6.3 14 12.3 18.4 5.3 3.8 11.8 6.1 18.8 6.1s13.5-2.3 18.8-6.1c6.1-4.4 10.5-10.9 12.3-18.4 1-3.9-1.9-7.5-5.8-7.5z" fill="#3E3A39" p-id="14607"></path><path d="M603.5 660.8c-7 0-13.3 3.2-17.5 8.2-0.8 0.9-0.5 2.3 0.5 3 4.9 3.1 10.7 4.9 17 4.9 6.2 0 12.1-1.8 17-4.9 1-0.6 1.3-2 0.5-3-4.2-5-10.5-8.2-17.5-8.2z" fill="#E4847F" p-id="14608"></path><path d="M696.5 403.4c1.3 1.3 3.5 1.3 4.8 0l5.3-5.3 5.3 5.3c1.3 1.3 3.5 1.3 4.8 0 1.3-1.3 1.3-3.5 0-4.8l-5.3-5.3 5.3-5.3c1.3-1.3 1.3-3.5 0-4.8-1.3-1.3-3.5-1.3-4.8 0l-5.3 5.3-5.3-5.3c-1.3-1.3-3.5-1.3-4.8 0s-1.3 3.5 0 4.8l5.3 5.3-5.3 5.3c-1.4 1.3-1.4 3.4 0 4.8zM183.8 715.9h-13.6v-13.6c0-3.4-2.8-6.2-6.2-6.2-3.4 0-6.2 2.8-6.2 6.2v13.6h-13.6c-3.4 0-6.2 2.8-6.2 6.2 0 3.4 2.8 6.2 6.2 6.2h13.6v13.6c0 3.4 2.8 6.2 6.2 6.2 3.4 0 6.2-2.8 6.2-6.2v-13.6h13.6c3.4 0 6.2-2.8 6.2-6.2 0-3.4-2.8-6.2-6.2-6.2zM315.9 623.8c-11.6 0-21 9.4-21 21s9.4 21 21 21 21-9.4 21-21-9.4-21-21-21z m0 32c-6.1 0-11-4.9-11-11s4.9-11 11-11 11 4.9 11 11-4.9 11-11 11zM823.7 238.2c2.3 0 4.2-1.9 4.2-4.2v-13.4c0-2.3-1.9-4.2-4.2-4.2s-4.2 1.9-4.2 4.2V234c0.1 2.4 1.9 4.2 4.2 4.2zM823.7 278.3c2.3 0 4.2-1.9 4.2-4.2v-13.4c0-2.3-1.9-4.2-4.2-4.2s-4.2 1.9-4.2 4.2v13.4c0.1 2.3 1.9 4.2 4.2 4.2zM836.1 253.9c-1.6-1.6-4.3-1.6-5.9 0-1.6 1.6-1.6 4.3 0 5.9l9.4 9.4c0.8 0.8 1.9 1.2 3 1.2s2.1-0.4 3-1.2c1.6-1.6 1.6-4.3 0-5.9l-9.5-9.4zM811.3 240.9c0.8 0.8 1.9 1.2 3 1.2s2.1-0.4 3-1.2c1.6-1.6 1.6-4.3 0-5.9l-9.4-9.4c-1.6-1.6-4.3-1.6-5.9 0-1.6 1.6-1.6 4.3 0 5.9l9.3 9.4zM811.3 253.9l-9.4 9.4c-1.6 1.6-1.6 4.3 0 5.9 0.8 0.8 1.9 1.2 3 1.2s2.1-0.4 3-1.2l9.4-9.4c1.6-1.6 1.6-4.3 0-5.9a4.35 4.35 0 0 0-6 0zM833.2 242.1c1.1 0 2.1-0.4 3-1.2l9.4-9.4c1.6-1.6 1.6-4.3 0-5.9-1.6-1.6-4.3-1.6-5.9 0l-9.4 9.4c-1.6 1.6-1.6 4.3 0 5.9 0.7 0.8 1.8 1.2 2.9 1.2zM850.4 243.2H837c-2.3 0-4.2 1.9-4.2 4.2 0 2.3 1.9 4.2 4.2 4.2h13.4c2.3 0 4.2-1.9 4.2-4.2 0-2.3-1.9-4.2-4.2-4.2zM797 251.6h13.4c2.3 0 4.2-1.9 4.2-4.2 0-2.3-1.9-4.2-4.2-4.2H797c-2.3 0-4.2 1.9-4.2 4.2 0 2.3 1.9 4.2 4.2 4.2z" fill="#036EB8" p-id="14609"></path><path d="M867.5 402.1m-8.9 0a8.9 8.9 0 1 0 17.8 0 8.9 8.9 0 1 0-17.8 0Z" fill="#036EB8" p-id="14610"></path><path d="M290.4 831.3m-8.9 0a8.9 8.9 0 1 0 17.8 0 8.9 8.9 0 1 0-17.8 0Z" fill="#036EB8" p-id="14611"></path><path d="M135.9 530.1m-8.9 0a8.9 8.9 0 1 0 17.8 0 8.9 8.9 0 1 0-17.8 0Z" fill="#036EB8" p-id="14612"></path><path d="M755 173.1m-8.9 0a8.9 8.9 0 1 0 17.8 0 8.9 8.9 0 1 0-17.8 0Z" fill="#036EB8" p-id="14613"></path><path d="M827.4 570.1c-5.5 0-10 4.5-10 10v27c0 5.5 4.5 10 10 10s10-4.5 10-10v-27c0-5.5-4.5-10-10-10z" fill="#036EB8" p-id="14614"></path><path d="M801.4 456.1H643.7v-220c0-19.9-16.1-36-36-36H214.4c-19.9 0-36 16.1-36 36v70.6c0 5.5 4.5 10 10 10s10-4.5 10-10v-70.6c0-8.8 7.2-16 16-16h393.3c8.8 0 16 7.2 16 16v220H408.1c-19.9 0-36 16.1-36 36v28h-56.2c-2.7 0-5.2 1.1-7.1 2.9l-46.9 47v-39.9c0-5.5-4.5-10-10-10h-37.5c-8.8 0-16-7.2-16-16V348.7c0-5.5-4.5-10-10-10s-10 4.5-10 10v155.4c0 19.9 16.1 36 36 36h27.5v54c0 4 2.4 7.7 6.2 9.2 1.2 0.5 2.5 0.8 3.8 0.8 2.6 0 5.2-1 7.1-2.9l61.1-61.1h52v220c0 19.9 16.1 36 36 36h287.7l61.1 61.1c1.9 1.9 4.5 2.9 7.1 2.9 1.3 0 2.6-0.2 3.8-0.8 3.7-1.5 6.2-5.2 6.2-9.2v-54h27.5c19.9 0 36-16.1 36-36V644.8c0-5.5-4.5-10-10-10s-10 4.5-10 10v115.3c0 8.8-7.2 16-16 16H764c-5.5 0-10 4.5-10 10V826l-47-46.9c-1.9-1.9-4.4-2.9-7.1-2.9H408.1c-8.8 0-16-7.2-16-16v-268c0-8.8 7.2-16 16-16h393.4c8.8 0 16 7.2 16 16v53c0 5.5 4.5 10 10 10s10-4.5 10-10v-53c-0.1-19.9-16.2-36.1-36.1-36.1z" fill="#036EB8" p-id="14615"></path><path d="M549.9 370.1c0-23.2-18.8-42-42-42s-42 18.8-42 42 18.8 42 42 42 42-18.8 42-42z m-64 0c0-12.1 9.9-22 22-22s22 9.9 22 22-9.9 22-22 22-22-9.8-22-22zM411.1 412.1c23.2 0 42-18.8 42-42s-18.8-42-42-42-42 18.8-42 42 18.8 42 42 42z m0-64c12.1 0 22 9.9 22 22s-9.9 22-22 22-22-9.9-22-22 9.8-22 22-22zM357.9 370.1c0-23.2-18.8-42-42-42s-42 18.8-42 42 18.8 42 42 42 42-18.8 42-42z m-64 0c0-12.1 9.9-22 22-22s22 9.9 22 22-9.9 22-22 22-22-9.8-22-22z" fill="#036EB8" p-id="14616"></path></svg>