<?xml version="1.0" standalone="no"?><!DOCTYPE svg PUBLIC "-//W3C//DTD SVG 1.1//EN" "http://www.w3.org/Graphics/SVG/1.1/DTD/svg11.dtd"><svg t="1746846346741" class="icon" viewBox="0 0 1024 1024" version="1.1" xmlns="http://www.w3.org/2000/svg" p-id="12654" xmlns:xlink="http://www.w3.org/1999/xlink" width="200" height="200"><path d="M624.04704 576m-320 0a320 320 0 1 0 640 0 320 320 0 1 0-640 0Z" fill="#006BFF" opacity=".13" p-id="12655"></path><path d="M520.57504 102.72c100.752-124.08 305.136-126.4 418.064-4.576 113.68 122.656 113.872 320.992 0.48 443.472L507.16704 1007.744l-427.52-461.28c-108.144-122.832-105.888-316.928 5.36-437.104C196.84704-11.312 378.20704-13.584 492.91104 104.16l14.448 14.832z m394.592 17.184C815.26304 12.112 633.69504 14.176 545.40704 122.896l-35.84 44.208-39.568-40.608C368.04704 21.856 207.87104 23.872 108.47904 131.104 16.27104 230.72 7.29504 387.584 82.33504 497.872l95.712-48.32 14.704 32.672-87.904 44.384L507.15104 960.64l408.48-440.8c60.384-65.2 84.96-154.656 73.76-239.712l-88.48 28.928-10.08-34.592 91.68-29.968c-11.184-43.728-32.24-85.12-63.2-120.032zM354.12704 455.744l146.08 103.296-18.992 30.112-146.08-103.28 18.992-30.112zM735.56704 389.76l25.808 23.744-114.592 139.712-25.792-23.744 114.576-139.712z" fill="#262626" p-id="12656"></path><path d="M560.04704 496a80 80 0 1 1-0.016 160.016A80 80 0 0 1 560.04704 496z m-290.08-128a80 80 0 1 1 0 160.016 80 80 0 0 1 0-160.016zM816.04704 256a80 80 0 1 1-0.016 160.016A80 80 0 0 1 816.04704 256z" fill="#006BFF" p-id="12657"></path></svg>